<svg t="1743303018367" class="icon" viewBox="0 0 1024 1024" version="1.1" xmlns="http://www.w3.org/2000/svg" p-id="17495" width="32" height="32"><path d="M502.176 601.268c-14.692 79.436-131.96 88.34-221.752 71.728-111.78-20.68-221.728-153.78-221.728-153.78s141.36-158.644 274.96-133.928C467.248 410 516.884 521.784 502.176 601.268z" fill="#B7DCB2" p-id="17496"></path><path d="M99.512 494.584S342.084 361.36 461.884 547.3l-13.956 12.732c0.004-0.004-99.232-123.068-348.416-65.448z" fill="#A3D4A5" p-id="17497"></path><path d="M259.616 565.852s107.248-122.072 190.248-6.592c0 0-30.912 82.396-25.336 112.58 5.58 30.184-244.264 21.152-365.824-152.62 0 0 161.216 134.728 310.22 100.268 0 0 35.808-4.76 50.416-55.596-0.004-0.008-56.208-59.848-159.724 1.96" fill="#A3D4A5" p-id="17498"></path><path d="M466.224 566.876c-72.504 83.04 0.472 240.916 104.072 305.596C699.256 952.996 914.1 988.448 914.1 988.448s53.696-289.728-81.212-416.728c-134.92-126.988-294.136-87.904-366.664-4.844z" fill="#B7DCB2" p-id="17499"></path><path d="M498.36 554.656s183.476 27.84 257.78 121.456c0 0 132.22 24.284 149.384 44.28 0 0-9.836-128.296-123.416-188.288 0 0 95.54 95.356 24.828 107.38-72.436 12.308-136.528-107.292-308.576-84.828z" fill="#A3D4A5" p-id="17500"></path><path d="M472.812 580.512S406.764 851.556 847.98 920.036c0 0-16.752-190.372-178.624-281.452 0 0 244.72 98.516 244.752 349.872 0 0-412.828-55.048-465.68-283.636 0 0-4.308-88.004 18.328-124.248" fill="#A3D4A5" p-id="17501"></path><path d="M675.156 826.408c38.384 2.548 65.704-84.564 57.584-119.668 0 0 91.288 41.296 115.244 213.296 0 0-38.736-276.94-188.42-323.808 74.296 158.588 15.592 230.18 15.592 230.18z" fill="#A3D4A5" p-id="17502"></path><path d="M908.6 917.284s-19.876-140.268-58.14-184.152c0 0 51.204-29.416 55.064-12.74 0 0-60.992-56.156-149.384-44.28 0 0 116.916 136.34 152.46 241.172z" fill="#A3D4A5" p-id="17503"></path><path d="M458.992 235.56c-30.532-53.588-63.864-200.948 142.14-200.948 89.676 5.736 195.332 105.436 141.644 147.448" fill="#EFC1DA" p-id="17504"></path><path d="M639.856 197.608c27.564-17.768 58.184-30.784 82.988-37.012 147.824-37.144 218.656 78.572 198.564 186.268-14.772 79.124-106.316 145.732-185.76 128.18" fill="#EFC1DA" p-id="17505"></path><path d="M706.984 283.724s96.836 58.764 107.06 107.064c0 0 159.212-135.756 0-210.5 0 0 88.412 18.084 88.412 140.848 0 122.768-103.916 128.888-103.916 128.888s-65.128-83.052-104.416-122.336l12.86-43.964z" fill="#DDA1C8" p-id="17506"></path><path d="M320.448 487.936C223.88 463.608 127.524 367.564 177.52 270.18c30.132-58.648 116.828-171.26 228.2-135.76 30.548 9.724 61.696 46.296 80.928 93.32" fill="#EFC1DA" p-id="17507"></path><path d="M662.308 331.428c69.9 48.444 120.376 116.78 126.14 158.18 16.652 119.304-145.42 175.156-267.376 160.42-121.948-14.736-217.204-56.352-202.76-175.924 4.916-40.76 72.332-112.812 139.644-156.036" fill="#EFC1DA" p-id="17508"></path><path d="M786.636 480.46c-5.776-41.4-56.244-109.736-126.14-158.18L456.152 308.9c-67.328 43.244-134.728 115.296-139.648 156.044-14.44 119.584 80.824 161.204 202.76 175.924 121.944 14.748 284.024-41.104 267.372-160.408z m-253.552 80.652c-85.108-10.284-145.196-32.92-135.116-116.392 1.72-14.12 17.82-29.956 39.372-46.012 35.296 21.204 125.076 61.404 237.316 10.136 20.88 16.404 36.008 32.136 38.108 47.22 11.624 83.276-94.556 115.332-179.68 105.048z" fill="#DDA1C8" p-id="17509"></path><path d="M272.924 185.584S157.352 290.26 267.092 367.08c0 0 46.544-67.8 152.22-80.548l7.556 26.136s-96.78 88.264-127.356 145.412c0.004 0-245.72-91.848-26.588-272.496z" fill="#DDA1C8" p-id="17510"></path><path d="M572.472 157.72c67.564 5.812 118.016 61.388 112.624 124.132-5.368 62.768-62.772 88.804-130.368 82.996-67.584-5.776-119.756-41.18-114.38-103.928 5.392-62.788 64.532-108.98 132.124-103.2z" fill="#FFF19D" p-id="17511"></path><path d="M481.384 215.86s-18.584 74.408 60.064 83.552c78.644 9.148 117.264-66.196 84.836-98.628 0 0 66.16 34.784 31.812 100.544-34.348 65.752-174.488 77.976-195.856-3.752-21.388-81.708 19.144-81.716 19.144-81.716z" fill="#F5844A" opacity=".15" p-id="17512"></path></svg>