<svg t="1743302890321" class="icon" viewBox="0 0 1024 1024" version="1.1" xmlns="http://www.w3.org/2000/svg" p-id="17252" width="32" height="32"><path d="M367.315473 342.686796c-0.619683 5.633481 4.619455 10.96651 8.074656 14.75972 5.145246 5.633481 10.666058 10.985288 15.905195 16.543657a328.619731 328.619731 0 0 1 47.377576 62.925983c50.194317 86.511491 56.635263 190.824783 42.307443 287.927219-14.590716 98.848815-48.616942 194.22365-89.929136 284.828805-4.976242 10.910175 11.266962 20.468315 16.205647 9.389135C470.107725 881.210032 522.480321 724.505367 502.162232 570.880337c-9.839814-74.399507-38.946133-144.49879-88.952666-200.796045-6.816512-7.661534-14.00859-15.022616-21.106776-22.327363-2.159501-2.253392-4.300224-4.506785-6.290721-6.910404 2.234614 2.685293-0.169004 0.413122-0.4319-0.845022-0.150226-0.694796 0.657239 3.117193 0.713574 2.628958 1.314479-11.999315-17.48257-11.905423-18.77827 0z" fill="#98C961" p-id="17253"></path><path d="M407.688754 423.320689l-51.959474-39.96016a49.537077 49.537077 0 0 0-45.424636-7.868095L247.942009 395.73541c-39.077581 12.618998-75.657651-25.031434-61.968292-63.73345l21.951798-61.761731A49.537077 49.537077 0 0 0 201.371898 224.609032L162.970335 171.428971c-24.073743-33.256317 0.4319-79.694979 41.4812-78.587062l65.517385 1.877827a49.537077 49.537077 0 0 0 41.312194-20.336867l38.608124-52.954722c24.261525-33.181204 75.99566-24.299082 87.61941 15.078951l18.552931 62.869649a49.537077 49.537077 0 0 0 32.12962 33.068534l62.306301 20.355645c39.040024 12.750446 46.494997 64.728698 12.637776 87.957419l-54.06264 37.049527a49.537077 49.537077 0 0 0-21.576233 40.786403l-0.112669 65.536164c-0.018778 41.068077-47.152237 64.184128-79.69498 39.19025z" fill="#ED796E" p-id="17254"></path><path d="M408.158211 422.513223l-46.063097-35.434596c-8.976013-6.910403-17.989583-12.80678-29.575776-14.421712-11.116736-1.558596-21.050441 1.483483-31.397268 4.826016l-34.439348 11.116736c-7.511308 2.459953-15.210399 5.408142-22.984602 7.267191a48.616942 48.616942 0 0 1-56.654042-64.109015c6.591173-19.059944 13.501576-38.007219 20.261754-57.010829 4.33778-12.187097 6.046603-24.543199 1.877827-37.124641-3.04208-9.01357-8.994791-16.524878-14.628273-24.036186L172.979153 183.785072c-4.863572-6.703843-10.553388-13.426463-14.102481-20.975328-14.628273-31.209485 8.882122-68.390461 43.190022-69.028921 19.698406-0.375565 39.565816 1.014027 59.264221 1.558596 10.271714 0.281674 20.111528 0.356787 29.838672-3.755654 10.778727-4.600676 18.02714-12.618998 24.730982-21.801572 11.623749-15.96153 23.116051-32.035729 34.908805-47.865811 18.984831-25.519669 58.531869-26.646366 78.004934-0.8638 5.746151 7.511308 8.074656 16.468543 10.722393 25.407l10.290492 34.871248c2.290949 7.755426 4.112441 15.923973 7.210856 23.416503a51.283456 51.283456 0 0 0 31.397268 28.76831c19.041166 6.384612 38.176224 12.468771 57.273724 18.77827 10.609723 3.47398 20.242975 8.187326 27.397497 17.125783a49.630968 49.630968 0 0 1 9.257687 42.570338c-5.727372 23.003381-28.599306 34.19523-46.664002 46.588889l-25.369443 17.388678c-11.39841 7.81176-19.773519 18.77827-22.533924 32.580299-1.690044 8.262439-1.051583 17.107004-1.070362 25.500892v36.805409c0 9.032348 0.582126 18.308814-1.877827 27.078266a48.673277 48.673277 0 0 1-76.408782 24.674647c-0.957692-0.732353-1.877827 0.901357-0.938913 1.614932 24.411751 18.383927 60.785261 11.060401 75.33842-16.299539 5.032576-9.389135 5.821264-19.473066 5.840042-29.913785v-35.340704-23.961073c0.244118-17.25723 8.994791-31.69772 23.02216-41.312195q25.594782-17.557683 51.208343-35.115366c21.895463-15.022616 29.575776-44.091379 16.168091-67.601773a51.039339 51.039339 0 0 0-28.937315-23.059716c-8.825787-2.948188-17.707909-5.783707-26.571252-8.675561l-32.110843-10.497053c-14.177594-4.638233-26.007904-13.388907-32.261068-27.303605-3.567871-7.943208-5.445698-16.900443-7.905652-25.256773l-10.403162-35.303149c-2.666514-9.032348-5.239137-17.8018-11.266962-25.406999A50.832778 50.832778 0 0 0 394.318626 0.208702a50.194317 50.194317 0 0 0-38.251337 12.769224c-6.215607 5.633481-10.891397 13.144789-15.811303 19.942523L318.191518 63.360025c-6.40339 8.769452-12.243432 17.670352-21.82035 23.435281-11.266962 6.778956-23.191164 7.023073-35.772605 6.685064l-36.617627-0.995248c-8.412665-0.225339-17.144561-1.08914-25.557226-0.356787A50.175538 50.175538 0 0 0 162.406987 112.521537 50.983004 50.983004 0 0 0 153.712648 153.364274c2.197058 9.858592 7.774204 17.632796 13.539133 25.632339l21.369672 29.500663c5.10769 7.041851 11.004066 14.00859 15.210399 21.651346 7.830539 14.196372 6.910403 29.369215 1.671266 44.128935l-11.604971 32.692969c-2.910632 8.187326-5.915155 16.374652-8.731896 24.599534a50.551104 50.551104 0 0 0 45.762645 67.601773c9.914927 0.300452 18.947275-3.04208 28.167405-6.027825l35.678714-11.511079c9.389135-3.004523 18.984831-7.041851 28.843423-7.511309 14.496825-0.563348 26.026683 5.802486 37.049527 14.252708l28.974872 22.271028 17.576461 13.520355c0.957692 0.694796 1.877827-0.920135 0.938913-1.652488z" fill="#F2976A" p-id="17255"></path><path d="M366.80846 220.684374m-23.040938 0a23.040938 23.040938 0 1 0 46.081876 0 23.040938 23.040938 0 1 0-46.081876 0Z" fill="#FFFFFE" p-id="17256"></path><path d="M460.793703 870.694201s85.384795-227.573858 410.643215-123.936584c0-0.056335-187.125464 217.039248-410.643215 123.936584zM492.604093 752.80422S284.691084 813.908712 184.114668 526.563619c0 0 255.065246 17.031891 308.489425 226.240601z" fill="#98C961" p-id="17257"></path><path d="M476.398445 863.877689a658.028149 658.028149 0 0 1 69.066479-36.129392c53.593184-24.843652 109.890438-44.786175 167.858958-56.56015a486.92055 486.92055 0 0 1 115.937041-10.121488c3.624206 0.150226 3.624206-5.483255 0-5.633481-114.847901-4.525563-230.465712 35.678714-330.610227 89.365788-8.469 4.544341-16.900443 9.163796-25.087769 14.196373-3.079636 1.877827-0.244118 6.778956 2.835518 4.863572zM469.469264 730.720974a447.148173 447.148173 0 0 1-50.213095-23.529173 794.959296 794.959296 0 0 1-120.932061-78.737287 816.159963 816.159963 0 0 1-79.244301-71.357427c-2.535066-2.591401-6.51606 1.389592-3.980993 3.980993 67.188651 68.841139 147.334309 127.955134 235.272949 167.596063 5.802486 2.61018 11.642528 5.220359 17.595239 7.511308 3.398867 1.276922 4.863572-4.168776 1.502262-5.42692z" fill="#6BB82D" p-id="17258"></path><path d="M384.347364 683.850411c-5.877599-6.778956-12.205876-12.525106-17.163339-20.18664-12.262211-18.909718-18.421483-40.899073-21.557454-63.038654-0.507013-3.567871-5.933933-2.046831-5.42692 1.502262 3.192306 22.533924 9.614474 45.067849 22.120802 64.390689 5.220359 8.055878 11.867867 14.177594 18.045918 21.332115 2.38484 2.741627 6.347055-1.258144 3.980993-3.980993zM270.607381 663.175536c27.604057-2.290949 57.837073 0.676018 83.187737 12.111984 3.286197 1.483483 6.140494-3.380089 2.835519-4.863572-26.289578-11.849089-57.405172-15.266734-86.023256-12.881893-3.58665 0.300452-3.624206 5.933933 0 5.633481zM575.453821 818.847397c49.06762-5.070133 103.918948-0.807466 149.099467 19.679627 3.286197 1.483483 6.140494-3.36131 2.835519-4.863572-46.100654-20.881437-101.872117-25.613561-151.953764-20.449536-3.567871 0.375565-3.605428 6.009047 0 5.633481zM673.194719 732.016675c-18.177366 23.923516-39.978938 47.283685-65.216933 63.733449-3.023302 1.877827-0.206561 6.854069 2.835518 4.863572 26.120574-17.013113 48.447937-41.011742 67.244987-65.723946 2.197058-2.891854-2.704071-5.633481-4.863572-2.835519z" fill="#6BB82D" p-id="17259"></path><path d="M663.129566 819.166627c12.91945-8.731896 29.913785-18.121031 45.950427-16.299538 3.605428 0.413122 3.567871-5.220359 0-5.633481-16.900443-1.877827-35.152922 7.849317-48.823503 17.069447-2.985745 2.028053-0.169004 6.910403 2.835519 4.863572zM669.908521 837.550554c-14.515603-4.300224-32.824417-11.51108-41.312195-24.74976-1.877827-3.04208-6.816512-0.225339-4.863572 2.835518 9.389135 14.628273 28.580527 22.533924 44.635949 27.341162 3.47398 1.032805 4.976242-4.394115 1.502262-5.42692z" fill="#6BB82D" p-id="17260"></path></svg>